<?xml version="1.0" standalone="no"?>
<!DOCTYPE svg PUBLIC "-//W3C//DTD SVG 20010904//EN"
 "http://www.w3.org/TR/2001/REC-SVG-20010904/DTD/svg10.dtd">
<svg version="1.0" xmlns="http://www.w3.org/2000/svg"
 width="1280.000000pt" height="720.000000pt" viewBox="0 0 1280.000000 720.000000"
 preserveAspectRatio="xMidYMid meet">
<metadata>
Created by potrace 1.16, written by Peter Selinger 2001-2019
</metadata>
<g transform="translate(0.000000,720.000000) scale(0.100000,-0.100000)"
fill="#000000" stroke="none">
<path d="M0 3600 l0 -3600 6400 0 6400 0 0 3600 0 3600 -6400 0 -6400 0 0
-3600z m6575 2721 c44 -16 112 -40 152 -55 39 -14 95 -29 124 -32 30 -3 65
-12 80 -20 91 -47 250 -318 312 -532 18 -64 22 -102 22 -222 0 -300 -82 -536
-358 -1025 -49 -88 -130 -238 -180 -333 l-90 -174 48 -91 c36 -68 44 -89 30
-83 -32 12 -55 -3 -55 -34 0 -23 16 -46 65 -98 36 -38 71 -84 79 -103 l14 -34
9 33 8 33 28 -58 c15 -32 21 -49 12 -39 -8 11 -15 23 -15 28 0 4 -4 8 -10 8
-16 0 -12 -75 6 -120 19 -47 28 -50 48 -12 13 24 15 25 22 8 4 -10 2 -27 -4
-37 -16 -26 -15 -32 5 -25 9 4 20 1 25 -6 12 -20 10 -25 -17 -32 -24 -6 -36
-26 -16 -26 5 0 13 -9 16 -21 6 -16 9 -18 22 -8 12 10 16 10 24 -2 17 -27 11
-40 -17 -33 -24 6 -25 5 -15 -15 7 -11 20 -21 31 -21 24 0 35 -59 33 -181 -2
-210 -73 -354 -211 -427 -72 -39 -79 -39 -58 -7 9 14 14 25 10 25 -4 0 0 7 7
16 7 9 14 31 14 49 2 32 1 33 -42 31 -46 -1 -63 -15 -63 -53 0 -25 15 -38 31
-27 8 4 7 9 -2 15 -11 7 -10 13 7 30 21 20 44 19 44 -2 0 -6 -13 -24 -29 -40
-25 -24 -37 -29 -81 -29 -54 0 -81 -10 -117 -43 -27 -24 -31 -12 -5 16 17 20
16 20 -13 13 -16 -4 -45 -19 -63 -33 -18 -14 -35 -23 -37 -21 -2 2 12 22 31
45 30 37 39 42 65 36 37 -7 56 9 80 65 16 36 23 43 39 39 16 -4 20 0 20 18 0
53 -27 41 -83 -35 -17 -24 -17 -17 0 28 4 11 -5 7 -25 -12 -38 -36 -42 -23 -7
24 30 40 29 35 9 54 -12 12 -20 14 -36 5 -19 -10 -19 -11 -2 -23 16 -12 14
-17 -24 -54 -47 -46 -46 -45 -31 -75 10 -18 8 -25 -21 -49 -35 -29 -54 -31
-26 -3 16 17 22 65 8 65 -4 0 -14 -6 -21 -12 -7 -7 -4 2 6 20 18 32 18 33 -9
82 -34 60 -35 85 -7 101 17 9 25 8 36 -4 19 -19 7 -40 -18 -34 -26 7 -25 -20
1 -28 46 -15 66 41 30 84 -17 19 -23 21 -35 11 -12 -10 -15 -10 -15 1 -1 9 -8
6 -19 -8 -11 -13 -24 -23 -30 -23 -21 0 -11 -35 24 -84 19 -27 35 -58 35 -67
0 -23 -38 -59 -62 -59 -10 0 -18 -4 -18 -10 0 -5 -11 -10 -25 -10 -14 0 -28
-7 -31 -15 -8 -21 -70 -38 -116 -32 -65 9 -162 63 -209 115 -92 105 -125 227
-116 432 9 189 69 409 201 737 l63 158 -25 50 c-13 28 -68 129 -122 225 -238
426 -325 606 -389 800 -60 181 -74 276 -68 445 7 181 43 309 129 453 37 63
138 169 183 192 16 8 57 43 90 76 53 55 69 65 140 87 44 14 123 30 175 37 52
7 122 18 155 26 76 17 139 10 240 -25z m-291 -4331 c45 -27 76 -85 83 -154 17
-167 -115 -273 -280 -224 -50 15 -100 66 -115 117 -27 87 -6 199 46 244 58 52
197 61 266 17z m1659 19 c33 -9 38 -14 33 -32 -3 -12 -6 -32 -6 -44 0 -21 -1
-21 -35 -7 -71 29 -150 9 -181 -48 -8 -13 -13 -44 -14 -70 0 -88 76 -138 179
-118 54 10 64 4 59 -41 -4 -39 -21 -46 -110 -48 -106 -2 -200 51 -230 128 -13
36 -13 121 1 163 32 98 175 153 304 117z m-3541 -44 l-16 -45 -73 0 -73 0 0
-40 0 -40 60 0 59 0 -17 -45 c-16 -44 -18 -45 -59 -45 l-42 0 -3 -72 -3 -73
-65 0 -65 0 -2 195 c-1 107 1 198 3 202 3 4 74 8 159 8 l154 0 -17 -45z m178
-160 l0 -205 -60 0 -60 0 0 205 0 205 60 0 60 0 0 -205z m395 188 c-4 -10 -12
-30 -17 -45 -10 -27 -12 -28 -84 -28 l-74 0 0 -40 0 -40 60 0 c33 0 60 -2 60
-5 0 -2 -7 -23 -16 -45 -15 -38 -18 -40 -60 -40 l-43 0 -3 -72 -3 -73 -62 -3
-63 -3 0 206 0 205 156 0 c145 0 156 -1 149 -17z m245 -75 c18 -51 50 -140 72
-197 21 -57 38 -108 38 -112 0 -5 -27 -9 -61 -9 -58 0 -60 1 -70 30 -11 29
-12 30 -79 30 -66 0 -68 -1 -80 -30 -12 -29 -15 -30 -71 -30 -33 0 -59 2 -59
4 0 7 116 327 134 370 l15 36 64 0 65 0 32 -92z m290 70 c1 -13 11 -79 23
-148 l23 -125 23 125 c13 69 25 135 28 148 5 20 11 22 73 22 80 0 70 15 100
-155 11 -65 23 -121 25 -123 2 -2 6 11 9 29 4 19 14 81 24 139 l18 105 52 3
c29 2 52 -1 52 -5 1 -4 -18 -95 -42 -200 l-42 -193 -72 0 -72 0 -16 93 c-26
146 -39 203 -43 187 -2 -8 -14 -73 -26 -145 l-23 -130 -71 -3 c-62 -2 -72 0
-77 15 -2 10 -19 82 -35 160 -17 77 -33 147 -35 155 -2 7 -7 25 -10 41 l-6 27
60 0 c55 0 60 -2 60 -22z m1183 -6 c14 -13 27 -37 31 -53 7 -38 -15 -94 -44
-109 l-21 -11 21 -34 c19 -31 60 -138 60 -157 0 -5 -25 -8 -56 -6 l-56 3 -18
58 c-21 68 -44 97 -77 97 -22 0 -23 -3 -23 -80 l0 -80 -55 0 -55 0 0 201 0
201 134 -4 c125 -3 136 -5 159 -26z m207 -132 l0 -160 80 0 80 0 0 -40 0 -40
-135 0 -135 0 0 200 0 200 55 0 55 0 0 -160z m483 146 c79 -29 111 -80 111
-181 0 -79 -16 -118 -64 -158 -43 -37 -89 -47 -212 -47 l-108 0 0 200 0 200
118 0 c72 -1 132 -6 155 -14z m737 -122 c0 -76 5 -144 11 -155 14 -27 53 -41
83 -29 35 13 46 63 46 203 l0 117 56 0 56 0 -3 -154 c-4 -137 -6 -158 -25
-182 -38 -51 -68 -66 -141 -71 -57 -4 -75 -1 -113 19 -70 36 -80 65 -80 241
l0 147 55 0 55 0 0 -136z m552 111 c35 -26 48 -56 48 -110 0 -77 -62 -125
-162 -125 l-38 0 0 -70 0 -70 -55 0 -55 0 0 201 0 201 118 -3 c98 -3 121 -7
144 -24z m-4022 -506 c121 -26 191 -156 144 -267 -19 -47 -68 -98 -118 -124
l-39 -20 89 -45 c49 -25 97 -53 108 -62 25 -21 46 -73 46 -111 l0 -31 -187 97
c-104 53 -207 110 -230 125 -154 106 -179 284 -53 391 63 54 138 69 240 47z
m810 -64 l0 -55 70 0 c75 0 75 0 64 -59 -6 -31 -7 -31 -71 -31 l-64 0 3 -87
c4 -117 -5 -113 264 -113 l211 0 -5 54 c-8 102 37 186 120 220 49 21 243 23
251 3 8 -20 9 -293 1 -333 l-6 -35 -52 3 -51 3 -3 74 -3 74 -32 -53 c-59 -98
-48 -95 -370 -98 -155 -2 -301 0 -325 3 -27 4 -55 17 -75 35 -31 28 -32 30
-37 137 l-5 108 -33 3 c-32 3 -33 4 -30 45 3 39 5 42 36 45 26 3 32 8 32 26 0
22 27 53 65 74 38 21 45 15 45 -43z m1503 31 c54 -23 80 -59 85 -119 7 -91
-44 -160 -158 -208 -117 -50 -119 -48 38 -48 l142 -1 -6 -27 c-15 -68 2 -63
-194 -63 -191 0 -190 0 -190 53 0 17 25 38 102 87 149 96 191 167 133 225 -19
20 -34 25 -76 25 -28 0 -69 -5 -90 -12 -22 -6 -42 -9 -44 -6 -3 3 1 23 10 45
12 30 24 43 48 51 47 15 163 14 200 -2z m480 -2 c80 -27 137 -110 137 -201 0
-53 -37 -137 -81 -182 -102 -103 -192 -109 -294 -19 -142 125 -133 323 19 394
61 29 149 32 219 8z m444 -5 c24 -12 50 -34 58 -50 19 -35 19 -110 1 -153 -19
-45 -91 -98 -179 -133 l-72 -28 144 -3 143 -3 -7 -37 c-4 -20 -9 -40 -11 -44
-3 -5 -85 -8 -183 -8 l-179 0 -5 33 c-6 41 -1 46 84 98 39 23 91 61 116 83 38
35 46 48 50 87 5 39 2 49 -18 68 -21 20 -31 22 -94 18 -38 -3 -82 -9 -97 -12
l-28 -7 13 38 c18 53 61 74 151 74 50 0 82 -6 113 -21z m420 0 c52 -25 73 -61
73 -124 0 -95 -59 -158 -195 -212 l-70 -28 143 -3 c154 -3 152 -2 131 -61
l-11 -31 -178 0 -178 0 -7 37 c-4 21 -3 39 2 40 35 13 212 145 230 172 30 45
30 91 -1 120 -22 21 -32 23 -93 18 -37 -3 -80 -9 -95 -12 -26 -7 -27 -6 -19
21 5 16 12 36 16 45 16 41 180 53 252 18z m-3077 -269 l0 -190 -55 0 -55 0 0
83 0 82 -31 -55 c-38 -70 -64 -97 -105 -110 -43 -15 -85 6 -108 54 -24 51 -22
168 5 223 38 79 91 101 242 102 l107 1 0 -190z m1260 171 c5 -11 10 -48 11
-83 0 -45 3 -56 8 -38 14 46 40 87 71 114 36 30 70 34 70 9 0 -10 3 -35 6 -55
6 -34 5 -38 -16 -38 -66 0 -112 -68 -132 -193 l-13 -77 -52 0 -52 0 -3 186
c-2 102 -1 188 1 190 2 2 24 4 47 4 33 0 46 -5 54 -19z"/>
<path d="M6716 6030 c-53 -27 -84 -37 -95 -31 -9 4 -55 16 -102 26 -107 22
-188 17 -251 -15 -51 -25 -146 -114 -180 -169 l-22 -34 41 27 c30 20 45 25 62
18 20 -7 14 -12 -46 -35 -77 -30 -92 -48 -137 -169 -69 -183 -47 -418 65 -688
56 -134 250 -487 277 -504 15 -9 140 256 192 409 114 334 136 562 70 737 -26
69 -94 148 -164 189 -49 29 -50 30 -16 23 19 -4 54 -16 78 -27 31 -16 45 -18
53 -10 9 9 6 11 -12 7 -17 -4 -20 -3 -10 4 17 13 -56 37 -159 52 -86 13 -101
20 -41 20 23 0 53 7 66 16 13 9 30 14 37 11 8 -3 6 -6 -5 -6 -10 -1 -15 -5
-12 -11 8 -12 72 -13 79 -1 4 5 -3 7 -14 4 -24 -6 -25 0 -5 20 12 12 22 13 57
4 47 -12 158 -73 171 -93 4 -7 24 -21 45 -30 70 -30 87 -42 117 -82 17 -23 36
-41 42 -41 7 -1 15 -12 19 -26 3 -14 10 -25 14 -25 12 0 30 -59 26 -84 -2 -11
-1 -15 1 -8 3 6 10 12 17 12 18 0 28 114 15 165 -6 22 -11 48 -12 58 -1 9 -5
17 -9 17 -4 0 -8 13 -8 28 0 15 -9 45 -20 67 -18 35 -18 40 -4 56 12 13 12 18
2 22 -10 3 -9 9 4 24 17 19 16 21 -15 50 -37 36 -88 63 -114 62 -10 0 -53 -18
-97 -39z"/>
<path d="M5705 5780 c-46 -10 -75 -32 -96 -72 -61 -118 47 -241 175 -198 39
13 80 59 90 103 22 93 -74 187 -169 167z"/>
<path d="M7107 5696 c-4 -9 -2 -16 2 -16 5 0 11 -18 13 -40 2 -22 -1 -40 -6
-40 -12 0 2 -133 15 -140 12 -8 -15 -76 -33 -83 -10 -4 -10 -7 -1 -14 10 -7
10 -13 -2 -29 -10 -14 -14 -15 -15 -5 0 23 -40 -24 -40 -47 0 -10 -9 -27 -19
-36 -12 -11 -19 -30 -18 -50 0 -17 -9 -52 -21 -77 -12 -25 -22 -53 -22 -62 0
-9 -4 -17 -8 -17 -4 0 -14 -27 -21 -60 -8 -33 -18 -63 -22 -66 -11 -7 -12 -34
-1 -34 5 0 17 18 28 40 10 22 24 40 31 40 6 0 22 18 34 40 13 22 28 40 34 40
8 0 10 10 7 28 -5 24 -4 26 11 13 10 -7 18 -28 18 -45 2 -30 2 -30 6 -3 2 15
8 27 11 27 4 0 13 19 20 43 48 164 61 337 38 481 -18 108 -29 139 -39 112z"/>
<path d="M6094 3843 c-3 -10 -16 -45 -29 -78 -21 -52 -47 -133 -70 -212 -9
-31 15 -30 45 2 13 14 34 25 47 25 13 0 23 6 23 13 0 6 5 4 11 -5 15 -27 24
-22 44 22 10 22 22 40 26 40 4 0 4 12 0 28 -12 39 -79 182 -86 182 -3 0 -8 -8
-11 -17z"/>
<path d="M6460 3510 c-8 -5 -23 -7 -34 -4 -16 5 -17 2 -11 -25 5 -26 4 -30 -9
-25 -23 9 -20 -19 4 -41 14 -13 17 -22 10 -30 -7 -9 -6 -16 5 -25 15 -12 48
-11 153 6 28 4 51 2 67 -6 28 -15 56 -77 49 -111 -5 -24 -4 -24 6 1 16 35 -3
95 -37 117 -17 12 -49 18 -92 19 -36 1 -74 2 -83 3 -10 1 -25 12 -34 26 -24
37 -5 78 34 73 19 -2 28 -9 30 -25 2 -16 -2 -23 -12 -23 -18 0 -21 -16 -6 -25
17 -11 40 15 40 46 0 17 -8 34 -22 43 -26 18 -37 19 -58 6z"/>
<path d="M6630 2947 c0 -30 -40 -108 -52 -101 -4 3 -8 12 -8 20 0 11 -8 14
-27 12 -33 -4 -42 -25 -11 -24 21 1 23 -3 23 -54 l0 -54 39 -9 c33 -8 41 -7
53 9 7 10 13 24 13 33 0 8 7 23 17 33 15 17 17 17 35 2 22 -21 24 -2 2 20 -18
19 -26 20 -41 5 -9 -9 -14 -5 -18 14 -4 14 -4 31 0 36 3 6 2 11 -4 11 -6 0 -8
12 -5 29 4 16 1 32 -5 35 -7 5 -11 -2 -11 -17z"/>
<path d="M6106 1909 c-22 -26 -26 -40 -26 -92 0 -104 52 -157 119 -123 39 21
54 63 49 137 -4 52 -9 66 -32 86 -38 33 -78 30 -110 -8z"/>
<path d="M7220 1810 l0 -120 35 0 c48 0 101 23 115 51 16 28 16 109 1 137 -16
30 -63 52 -111 52 l-40 0 0 -120z"/>
<path d="M4513 1385 c-64 -28 -84 -129 -39 -196 14 -20 48 -51 76 -69 l51 -33
24 23 c44 42 68 105 62 165 -6 64 -22 90 -63 110 -39 18 -69 18 -111 0z"/>
<path d="M6072 1264 c-19 -13 -22 -24 -22 -89 0 -53 4 -78 16 -89 18 -19 43
-9 66 26 14 22 58 143 58 160 0 15 -95 8 -118 -8z"/>
<path d="M7272 1354 c-73 -51 -66 -222 13 -301 40 -40 63 -41 106 -6 42 36 69
99 72 170 2 70 -14 113 -52 136 -36 21 -109 22 -139 1z"/>
<path d="M5003 1270 c-29 -12 -37 -47 -29 -118 14 -119 65 -104 115 33 17 47
31 88 31 91 0 8 -94 3 -117 -6z"/>
</g>
</svg>
